<?xml version="1.0" encoding="UTF-8" standalone="no"?>
<!DOCTYPE svg PUBLIC "-//W3C//DTD SVG 1.1//EN" "http://www.w3.org/Graphics/SVG/1.1/DTD/svg11.dtd">
<svg width="100%" height="100%" viewBox="0 0 1500 384" version="1.1" xmlns="http://www.w3.org/2000/svg" xmlns:xlink="http://www.w3.org/1999/xlink" xml:space="preserve" xmlns:serif="http://www.serif.com/" style="fill-rule:evenodd;clip-rule:evenodd;stroke-linecap:round;stroke-miterlimit:1.5;">
    <g transform="matrix(1,0,0,1,-5583.67,-1235.2)">
        <g transform="matrix(1,0,0,1,-0.648294,0)">
            <g transform="matrix(-1,0,0.0711677,0.286111,7055.96,1002.41)">
                <path d="M1515.65,1676.98L1400.24,866.142L1140.4,866.142L1140.4,1289.93L1200.72,1289.93L1316.13,2100.78L1575.97,2100.78L1575.97,1676.98L1515.65,1676.98Z" style="fill:rgb(166,152,114);stroke:black;stroke-width:24.25px;"/>
            </g>
        </g>
        <g transform="matrix(1,0,0,1,-0.648294,0)">
            <g transform="matrix(-1,0,0.0711677,0.286111,7055.96,1002.41)">
                <rect x="1140.4" y="866.142" width="259.843" height="423.791" style="fill:rgb(97,97,97);"/>
            </g>
        </g>
        <g transform="matrix(1,0,0,1,-0.648294,0)">
            <g transform="matrix(1,0,-0.207334,0.833529,4756.55,528.268)">
                <rect x="1140.4" y="866.142" width="259.843" height="423.791" style="fill:rgb(227,225,222);"/>
            </g>
        </g>
        <g transform="matrix(1,0,0,1,-0.648294,0)">
            <g transform="matrix(0.101711,0,-0.00962131,0.0386799,5618.72,1228.61)">
                <rect x="1140.4" y="866.142" width="259.843" height="423.791" style="fill:rgb(113,113,113);"/>
            </g>
        </g>
        <g transform="matrix(1,0,0,1,-0.648294,0)">
            <g transform="matrix(0.698934,0,-0.00962131,0.0386799,4976.85,1228.61)">
                <rect x="1140.4" y="866.142" width="259.843" height="423.791"/>
            </g>
        </g>
        <g transform="matrix(1,0,0,1,-0.648294,0)">
            <g transform="matrix(0.101711,0,-0.00962131,0.0386799,5583.21,1371.09)">
                <rect x="1140.4" y="866.142" width="259.843" height="423.791" style="fill:rgb(113,113,113);"/>
            </g>
        </g>
        <g transform="matrix(1,0,0,1,-0.648294,0)">
            <g transform="matrix(0.205146,0,-0.00962131,0.0386799,5452.76,1421.61)">
                <rect x="1140.4" y="866.142" width="259.843" height="423.791" style="fill:rgb(113,113,113);"/>
            </g>
        </g>
        <g transform="matrix(1,0,0,1,-0.648294,0)">
            <g transform="matrix(0.101082,0,-0.00962131,0.0386799,5623.27,1371.1)">
                <rect x="1140.4" y="866.142" width="259.843" height="423.791" style="fill:rgb(113,113,113);"/>
            </g>
        </g>
        <g transform="matrix(1,0,0,1,-0.648294,0)">
            <g transform="matrix(0.101711,0,-0.00962131,0.0386799,5597.93,1312.47)">
                <rect x="1140.4" y="866.142" width="259.843" height="423.791" style="fill:rgb(113,113,113);"/>
            </g>
        </g>
        <g transform="matrix(1,0,0,1,-0.648294,0)">
            <g transform="matrix(0.101711,0,-0.00962131,0.0386799,5669.51,1337.8)">
                <rect x="1140.4" y="866.142" width="259.843" height="423.791" style="fill:rgb(113,113,113);"/>
            </g>
        </g>
        <g transform="matrix(1,0,0,1,-0.648294,0)">
            <g transform="matrix(0.69917,0,-0.00962131,0.0386799,4955.95,1312.7)">
                <rect x="1140.4" y="866.142" width="259.843" height="423.791"/>
            </g>
        </g>
        <g transform="matrix(1,0,0,1,-0.648294,0)">
            <g transform="matrix(0.686999,0,-0.00962131,0.0386799,4944.94,1253.86)">
                <rect x="1140.4" y="866.142" width="259.843" height="423.791"/>
            </g>
        </g>
        <g transform="matrix(1,0,0,1,-0.648294,0)">
            <g transform="matrix(0.686999,0,-0.00962131,0.0386799,4909.59,1396.36)">
                <rect x="1140.4" y="866.142" width="259.843" height="423.791"/>
            </g>
        </g>
        <g transform="matrix(1,0,0,1,-0.648294,0)">
            <g transform="matrix(0.250947,0,-0.00962131,0.0386799,5435.93,1279.12)">
                <rect x="1140.4" y="866.142" width="259.843" height="423.791" style="fill:rgb(113,113,113);"/>
            </g>
        </g>
        <g transform="matrix(1,0,0,1,-0.648294,0)">
            <g transform="matrix(0.250947,0,-0.00962131,0.0386799,5421.18,1337.73)">
                <rect x="1140.4" y="866.142" width="259.843" height="423.791" style="fill:rgb(113,113,113);"/>
            </g>
        </g>
        <g transform="matrix(1,0,0,1,-0.648294,0)">
            <g transform="matrix(-1,0,0.0711677,0.286111,6937.93,1234.4)">
                <rect x="1140.4" y="866.142" width="259.843" height="423.791" style="fill:rgb(97,97,97);"/>
            </g>
        </g>
        <g transform="matrix(1,0,0,1,-0.648294,0)">
            <g transform="matrix(1,0,0,1,2303.51,971.332)">
                <g transform="matrix(102.078,0,0,102.078,3559.41,609.786)">
                </g>
                <text x="3338.11px" y="609.786px" style="font-family:'Chicago';font-weight:500;font-size:102.078px;fill:rgb(124,237,227);">PLF:</text>
            </g>
        </g>
        <g transform="matrix(1,0,0,1,-0.648294,0)">
            <g transform="matrix(-1,0,0.0711677,0.286111,7055.96,1002.41)">
                <path d="M1515.65,1676.98L1400.24,866.142L1140.4,866.142L1140.4,1289.93L1200.72,1289.93L1316.13,2100.78L1575.97,2100.78L1575.97,1676.98L1515.65,1676.98Z" style="fill:rgb(166,152,114);stroke:black;stroke-width:24.25px;"/>
            </g>
        </g>
        <g transform="matrix(1,0,0,1,-0.648294,0)">
            <g transform="matrix(-1,0,0.0711677,0.286111,7055.96,1002.41)">
                <rect x="1140.4" y="866.142" width="259.843" height="423.791" style="fill:rgb(97,97,97);"/>
            </g>
        </g>
        <g transform="matrix(1,0,0,1,-0.648294,0)">
            <g transform="matrix(1,0,-0.207334,0.833529,4756.55,528.268)">
                <rect x="1140.4" y="866.142" width="259.843" height="423.791" style="fill:rgb(227,225,222);"/>
            </g>
        </g>
        <g transform="matrix(1,0,0,1,-0.648294,0)">
            <g transform="matrix(0.101711,0,-0.00962131,0.0386799,5618.72,1228.61)">
                <rect x="1140.4" y="866.142" width="259.843" height="423.791" style="fill:rgb(113,113,113);"/>
            </g>
        </g>
        <g transform="matrix(1,0,0,1,-0.648294,0)">
            <g transform="matrix(0.698934,0,-0.00962131,0.0386799,4976.85,1228.61)">
                <rect x="1140.4" y="866.142" width="259.843" height="423.791"/>
            </g>
        </g>
        <g transform="matrix(1,0,0,1,-0.648294,0)">
            <g transform="matrix(0.101711,0,-0.00962131,0.0386799,5583.21,1371.09)">
                <rect x="1140.4" y="866.142" width="259.843" height="423.791" style="fill:rgb(113,113,113);"/>
            </g>
        </g>
        <g transform="matrix(1,0,0,1,-0.648294,0)">
            <g transform="matrix(0.205146,0,-0.00962131,0.0386799,5452.76,1421.61)">
                <rect x="1140.4" y="866.142" width="259.843" height="423.791" style="fill:rgb(113,113,113);"/>
            </g>
        </g>
        <g transform="matrix(1,0,0,1,-0.648294,0)">
            <g transform="matrix(0.101082,0,-0.00962131,0.0386799,5623.27,1371.1)">
                <rect x="1140.4" y="866.142" width="259.843" height="423.791" style="fill:rgb(113,113,113);"/>
            </g>
        </g>
        <g transform="matrix(1,0,0,1,-0.648294,0)">
            <g transform="matrix(0.101711,0,-0.00962131,0.0386799,5597.93,1312.47)">
                <rect x="1140.4" y="866.142" width="259.843" height="423.791" style="fill:rgb(113,113,113);"/>
            </g>
        </g>
        <g transform="matrix(1,0,0,1,-0.648294,0)">
            <g transform="matrix(0.101711,0,-0.00962131,0.0386799,5669.51,1337.8)">
                <rect x="1140.4" y="866.142" width="259.843" height="423.791" style="fill:rgb(113,113,113);"/>
            </g>
        </g>
        <g transform="matrix(1,0,0,1,-0.648294,0)">
            <g transform="matrix(0.69917,0,-0.00962131,0.0386799,4955.95,1312.7)">
                <rect x="1140.4" y="866.142" width="259.843" height="423.791"/>
            </g>
        </g>
        <g transform="matrix(1,0,0,1,-0.648294,0)">
            <g transform="matrix(0.686999,0,-0.00962131,0.0386799,4944.94,1253.86)">
                <rect x="1140.4" y="866.142" width="259.843" height="423.791"/>
            </g>
        </g>
        <g transform="matrix(1,0,0,1,-0.648294,0)">
            <g transform="matrix(0.686999,0,-0.00962131,0.0386799,4909.59,1396.36)">
                <rect x="1140.4" y="866.142" width="259.843" height="423.791"/>
            </g>
        </g>
        <g transform="matrix(1,0,0,1,-0.648294,0)">
            <g transform="matrix(0.250947,0,-0.00962131,0.0386799,5435.93,1279.12)">
                <rect x="1140.4" y="866.142" width="259.843" height="423.791" style="fill:rgb(113,113,113);"/>
            </g>
        </g>
        <g transform="matrix(1,0,0,1,-0.648294,0)">
            <g transform="matrix(0.250947,0,-0.00962131,0.0386799,5421.18,1337.73)">
                <rect x="1140.4" y="866.142" width="259.843" height="423.791" style="fill:rgb(113,113,113);"/>
            </g>
        </g>
        <g transform="matrix(1,0,0,1,-0.648294,0)">
            <g transform="matrix(-1,0,0.0711677,0.286111,6937.93,1234.4)">
                <rect x="1140.4" y="866.142" width="259.843" height="423.791" style="fill:rgb(97,97,97);"/>
            </g>
        </g>
        <g transform="matrix(1,0,0,1,-0.648294,0)">
            <g transform="matrix(1.08645,0,0,1.08645,2013.48,919.193)">
                <g transform="matrix(102.078,0,0,102.078,3530.4,609.786)">
                </g>
                <text x="3338.11px" y="609.786px" style="font-family:'FuturaBT-Heavy', 'Futura Hv BT', sans-serif;font-size:102.078px;fill:rgb(124,237,227);">PLF<tspan x="3496.11px " y="609.786px ">:</tspan></text>
            </g>
        </g>
        <g transform="matrix(1,0,0,1,-0.648294,0)">
            <g transform="matrix(-1,0,0.0711677,0.286111,7055.96,1002.41)">
                <path d="M1515.65,1676.98L1400.24,866.142L1140.4,866.142L1140.4,1289.93L1200.72,1289.93L1316.13,2100.78L1575.97,2100.78L1575.97,1676.98L1515.65,1676.98Z" style="fill:rgb(166,152,114);stroke:black;stroke-width:24.25px;"/>
            </g>
        </g>
        <g transform="matrix(1,0,0,1,-0.648294,0)">
            <g transform="matrix(-1,0,0.0711677,0.286111,7055.96,1002.41)">
                <rect x="1140.4" y="866.142" width="259.843" height="423.791" style="fill:rgb(97,97,97);"/>
            </g>
        </g>
        <g transform="matrix(1,0,0,1,-0.648294,0)">
            <g transform="matrix(1,0,-0.207334,0.833529,4756.55,528.268)">
                <rect x="1140.4" y="866.142" width="259.843" height="423.791" style="fill:rgb(227,225,222);"/>
            </g>
        </g>
        <g transform="matrix(1,0,0,1,-0.648294,0)">
            <g transform="matrix(0.101711,0,-0.00962131,0.0386799,5618.72,1228.61)">
                <rect x="1140.4" y="866.142" width="259.843" height="423.791" style="fill:rgb(113,113,113);"/>
            </g>
        </g>
        <g transform="matrix(1,0,0,1,-0.648294,0)">
            <g transform="matrix(0.698934,0,-0.00962131,0.0386799,4976.85,1228.61)">
                <rect x="1140.4" y="866.142" width="259.843" height="423.791"/>
            </g>
        </g>
        <g transform="matrix(1,0,0,1,-0.648294,0)">
            <g transform="matrix(0.101711,0,-0.00962131,0.0386799,5583.21,1371.09)">
                <rect x="1140.4" y="866.142" width="259.843" height="423.791" style="fill:rgb(113,113,113);"/>
            </g>
        </g>
        <g transform="matrix(1,0,0,1,-0.648294,0)">
            <g transform="matrix(0.205146,0,-0.00962131,0.0386799,5452.76,1421.61)">
                <rect x="1140.4" y="866.142" width="259.843" height="423.791" style="fill:rgb(113,113,113);"/>
            </g>
        </g>
        <g transform="matrix(1,0,0,1,-0.648294,0)">
            <g transform="matrix(0.101082,0,-0.00962131,0.0386799,5623.27,1371.1)">
                <rect x="1140.4" y="866.142" width="259.843" height="423.791" style="fill:rgb(113,113,113);"/>
            </g>
        </g>
        <g transform="matrix(1,0,0,1,-0.648294,0)">
            <g transform="matrix(0.101711,0,-0.00962131,0.0386799,5597.93,1312.47)">
                <rect x="1140.4" y="866.142" width="259.843" height="423.791" style="fill:rgb(113,113,113);"/>
            </g>
        </g>
        <g transform="matrix(1,0,0,1,-0.648294,0)">
            <g transform="matrix(0.101711,0,-0.00962131,0.0386799,5669.51,1337.8)">
                <rect x="1140.4" y="866.142" width="259.843" height="423.791" style="fill:rgb(113,113,113);"/>
            </g>
        </g>
        <g transform="matrix(1,0,0,1,-0.648294,0)">
            <g transform="matrix(0.69917,0,-0.00962131,0.0386799,4955.95,1312.7)">
                <rect x="1140.4" y="866.142" width="259.843" height="423.791"/>
            </g>
        </g>
        <g transform="matrix(1,0,0,1,-0.648294,0)">
            <g transform="matrix(0.686999,0,-0.00962131,0.0386799,4944.94,1253.86)">
                <rect x="1140.4" y="866.142" width="259.843" height="423.791"/>
            </g>
        </g>
        <g transform="matrix(1,0,0,1,-0.648294,0)">
            <g transform="matrix(0.686999,0,-0.00962131,0.0386799,4909.59,1396.36)">
                <rect x="1140.4" y="866.142" width="259.843" height="423.791"/>
            </g>
        </g>
        <g transform="matrix(1,0,0,1,-0.648294,0)">
            <g transform="matrix(0.250947,0,-0.00962131,0.0386799,5435.93,1279.12)">
                <rect x="1140.4" y="866.142" width="259.843" height="423.791" style="fill:rgb(113,113,113);"/>
            </g>
        </g>
        <g transform="matrix(1,0,0,1,-0.648294,0)">
            <g transform="matrix(0.250947,0,-0.00962131,0.0386799,5421.18,1337.73)">
                <rect x="1140.4" y="866.142" width="259.843" height="423.791" style="fill:rgb(113,113,113);"/>
            </g>
        </g>
        <g transform="matrix(1,0,0,1,-0.648294,0)">
            <g transform="matrix(-1,0,0.0711677,0.286111,6937.93,1234.4)">
                <rect x="1140.4" y="866.142" width="259.843" height="423.791" style="fill:rgb(97,97,97);"/>
            </g>
        </g>
        <g transform="matrix(1,0,0,1,-0.648294,0)">
            <g transform="matrix(1,0,0,1,2303.51,971.332)">
                <g transform="matrix(102.078,0,0,102.078,3559.41,609.786)">
                </g>
                <text x="3338.11px" y="609.786px" style="font-family:'Chicago';font-weight:500;font-size:102.078px;fill:rgb(124,237,227);">PLF:</text>
            </g>
        </g>
        <g transform="matrix(1,0,0,1,-0.648294,0)">
            <g transform="matrix(-1,0,0.0711677,0.286111,7055.96,1002.41)">
                <path d="M1515.65,1676.98L1400.24,866.142L1140.4,866.142L1140.4,1289.93L1200.72,1289.93L1316.13,2100.78L1575.97,2100.78L1575.97,1676.98L1515.65,1676.98Z" style="fill:rgb(166,152,114);stroke:black;stroke-width:24.25px;"/>
            </g>
        </g>
        <g transform="matrix(1,0,0,1,-0.648294,0)">
            <g transform="matrix(-1,0,0.0711677,0.286111,7055.96,1002.41)">
                <rect x="1140.4" y="866.142" width="259.843" height="423.791" style="fill:rgb(97,97,97);"/>
            </g>
        </g>
        <g transform="matrix(1,0,0,1,-0.648294,0)">
            <g transform="matrix(1,0,-0.207334,0.833529,4756.55,528.268)">
                <rect x="1140.4" y="866.142" width="259.843" height="423.791" style="fill:rgb(227,225,222);"/>
            </g>
        </g>
        <g transform="matrix(1,0,0,1,-0.648294,0)">
            <g transform="matrix(0.101711,0,-0.00962131,0.0386799,5618.72,1228.61)">
                <rect x="1140.4" y="866.142" width="259.843" height="423.791" style="fill:rgb(113,113,113);"/>
            </g>
        </g>
        <g transform="matrix(1,0,0,1,-0.648294,0)">
            <g transform="matrix(0.698934,0,-0.00962131,0.0386799,4976.85,1228.61)">
                <rect x="1140.4" y="866.142" width="259.843" height="423.791"/>
            </g>
        </g>
        <g transform="matrix(1,0,0,1,-0.648294,0)">
            <g transform="matrix(0.101711,0,-0.00962131,0.0386799,5583.21,1371.09)">
                <rect x="1140.4" y="866.142" width="259.843" height="423.791" style="fill:rgb(113,113,113);"/>
            </g>
        </g>
        <g transform="matrix(1,0,0,1,-0.648294,0)">
            <g transform="matrix(0.205146,0,-0.00962131,0.0386799,5452.76,1421.61)">
                <rect x="1140.4" y="866.142" width="259.843" height="423.791" style="fill:rgb(113,113,113);"/>
            </g>
        </g>
        <g transform="matrix(1,0,0,1,-0.648294,0)">
            <g transform="matrix(0.101082,0,-0.00962131,0.0386799,5623.27,1371.1)">
                <rect x="1140.4" y="866.142" width="259.843" height="423.791" style="fill:rgb(113,113,113);"/>
            </g>
        </g>
        <g transform="matrix(1,0,0,1,-0.648294,0)">
            <g transform="matrix(0.101711,0,-0.00962131,0.0386799,5597.93,1312.47)">
                <rect x="1140.4" y="866.142" width="259.843" height="423.791" style="fill:rgb(113,113,113);"/>
            </g>
        </g>
        <g transform="matrix(1,0,0,1,-0.648294,0)">
            <g transform="matrix(0.101711,0,-0.00962131,0.0386799,5669.51,1337.8)">
                <rect x="1140.4" y="866.142" width="259.843" height="423.791" style="fill:rgb(113,113,113);"/>
            </g>
        </g>
        <g transform="matrix(1,0,0,1,-0.648294,0)">
            <g transform="matrix(0.69917,0,-0.00962131,0.0386799,4955.95,1312.7)">
                <rect x="1140.4" y="866.142" width="259.843" height="423.791"/>
            </g>
        </g>
        <g transform="matrix(1,0,0,1,-0.648294,0)">
            <g transform="matrix(0.686999,0,-0.00962131,0.0386799,4944.94,1253.86)">
                <rect x="1140.4" y="866.142" width="259.843" height="423.791"/>
            </g>
        </g>
        <g transform="matrix(1,0,0,1,-0.648294,0)">
            <g transform="matrix(0.686999,0,-0.00962131,0.0386799,4909.59,1396.36)">
                <rect x="1140.4" y="866.142" width="259.843" height="423.791"/>
            </g>
        </g>
        <g transform="matrix(1,0,0,1,-0.648294,0)">
            <g transform="matrix(0.250947,0,-0.00962131,0.0386799,5435.93,1279.12)">
                <rect x="1140.4" y="866.142" width="259.843" height="423.791" style="fill:rgb(113,113,113);"/>
            </g>
        </g>
        <g transform="matrix(1,0,0,1,-0.648294,0)">
            <g transform="matrix(0.250947,0,-0.00962131,0.0386799,5421.18,1337.73)">
                <rect x="1140.4" y="866.142" width="259.843" height="423.791" style="fill:rgb(113,113,113);"/>
            </g>
        </g>
        <g transform="matrix(1,0,0,1,-0.648294,0)">
            <g transform="matrix(-1,0,0.0711677,0.286111,6937.93,1234.4)">
                <rect x="1140.4" y="866.142" width="259.843" height="423.791" style="fill:rgb(97,97,97);"/>
            </g>
        </g>
        <g transform="matrix(1,0,0,1,-0.648294,0)">
            <g transform="matrix(1.08645,0,0,1.08645,2013.48,919.193)">
                <g transform="matrix(102.078,0,0,102.078,3530.4,609.786)">
                </g>
                <text x="3338.11px" y="609.786px" style="font-family:'FuturaBT-Heavy', 'Futura Hv BT', sans-serif;font-size:102.078px;fill:rgb(124,237,227);">PLF<tspan x="3496.11px " y="609.786px ">:</tspan></text>
            </g>
        </g>
        <g transform="matrix(1,0,0,1,-0.648294,0)">
            <g transform="matrix(2.48136,0,0,2.48136,-2232.31,-10.5518)">
                <text x="3338.11px" y="609.786px" style="font-family:'FuturaBT-Heavy', 'Futura Hv BT', sans-serif;font-size:102.078px;fill:rgb(124,237,227);">py</text>
                <text x="3453.49px" y="609.786px" style="font-family:'FuturaBT-Heavy', 'Futura Hv BT', sans-serif;font-size:102.078px;fill:rgb(22,157,145);">log</text>
                <g transform="matrix(102.078,0,0,102.078,3758.18,609.786)">
                </g>
                <text x="3607.66px" y="609.786px" style="font-family:'FuturaBT-Heavy', 'Futura Hv BT', sans-serif;font-size:102.078px;fill:rgb(12,90,82);">file</text>
            </g>
        </g>
    </g>
</svg>
