<?xml version="1.0" encoding="UTF-8" standalone="no"?>
<!DOCTYPE svg PUBLIC "-//W3C//DTD SVG 1.1//EN" "http://www.w3.org/Graphics/SVG/1.1/DTD/svg11.dtd">
<svg width="100%" height="100%" viewBox="0 0 439 384" version="1.1" xmlns="http://www.w3.org/2000/svg" xmlns:xlink="http://www.w3.org/1999/xlink" xml:space="preserve" xmlns:serif="http://www.serif.com/" style="fill-rule:evenodd;clip-rule:evenodd;stroke-linecap:round;stroke-miterlimit:1.5;">
    <g transform="matrix(1,0,0,1,-4017.01,-854.883)">
        <g transform="matrix(1,0,0,1,-0.648294,0)">
            <g transform="matrix(-1,0,0.0711677,0.286111,5489.31,622.094)">
                <path d="M1515.65,1676.98L1400.24,866.142L1140.4,866.142L1140.4,1289.93L1200.72,1289.93L1316.13,2100.78L1575.97,2100.78L1575.97,1676.98L1515.65,1676.98Z" style="fill:rgb(166,152,114);stroke:black;stroke-width:24.25px;"/>
            </g>
        </g>
        <g transform="matrix(1,0,0,1,-0.648294,0)">
            <g transform="matrix(-1,0,0.0711677,0.286111,5489.31,622.094)">
                <rect x="1140.4" y="866.142" width="259.843" height="423.791" style="fill:rgb(97,97,97);"/>
            </g>
        </g>
        <g transform="matrix(1,0,0,1,-0.648294,0)">
            <g transform="matrix(1,0,-0.207334,0.833529,3189.89,147.952)">
                <rect x="1140.4" y="866.142" width="259.843" height="423.791" style="fill:rgb(227,225,222);"/>
            </g>
        </g>
        <g transform="matrix(1,0,0,1,-0.648294,0)">
            <g transform="matrix(0.101711,0,-0.00962131,0.0386799,4052.07,848.289)">
                <rect x="1140.4" y="866.142" width="259.843" height="423.791" style="fill:rgb(113,113,113);"/>
            </g>
        </g>
        <g transform="matrix(1,0,0,1,-0.648294,0)">
            <g transform="matrix(0.698934,0,-0.00962131,0.0386799,3410.2,848.289)">
                <rect x="1140.4" y="866.142" width="259.843" height="423.791"/>
            </g>
        </g>
        <g transform="matrix(1,0,0,1,-0.648294,0)">
            <g transform="matrix(0.101711,0,-0.00962131,0.0386799,4016.56,990.771)">
                <rect x="1140.4" y="866.142" width="259.843" height="423.791" style="fill:rgb(113,113,113);"/>
            </g>
        </g>
        <g transform="matrix(1,0,0,1,-0.648294,0)">
            <g transform="matrix(0.205146,0,-0.00962131,0.0386799,3886.11,1041.3)">
                <rect x="1140.4" y="866.142" width="259.843" height="423.791" style="fill:rgb(113,113,113);"/>
            </g>
        </g>
        <g transform="matrix(1,0,0,1,-0.648294,0)">
            <g transform="matrix(0.101082,0,-0.00962131,0.0386799,4056.62,990.783)">
                <rect x="1140.4" y="866.142" width="259.843" height="423.791" style="fill:rgb(113,113,113);"/>
            </g>
        </g>
        <g transform="matrix(1,0,0,1,-0.648294,0)">
            <g transform="matrix(0.101711,0,-0.00962131,0.0386799,4031.28,932.159)">
                <rect x="1140.4" y="866.142" width="259.843" height="423.791" style="fill:rgb(113,113,113);"/>
            </g>
        </g>
        <g transform="matrix(1,0,0,1,-0.648294,0)">
            <g transform="matrix(0.101711,0,-0.00962131,0.0386799,4102.86,957.486)">
                <rect x="1140.4" y="866.142" width="259.843" height="423.791" style="fill:rgb(113,113,113);"/>
            </g>
        </g>
        <g transform="matrix(1,0,0,1,-0.648294,0)">
            <g transform="matrix(0.69917,0,-0.00962131,0.0386799,3389.3,932.387)">
                <rect x="1140.4" y="866.142" width="259.843" height="423.791"/>
            </g>
        </g>
        <g transform="matrix(1,0,0,1,-0.648294,0)">
            <g transform="matrix(0.686999,0,-0.00962131,0.0386799,3378.29,873.546)">
                <rect x="1140.4" y="866.142" width="259.843" height="423.791"/>
            </g>
        </g>
        <g transform="matrix(1,0,0,1,-0.648294,0)">
            <g transform="matrix(0.686999,0,-0.00962131,0.0386799,3342.94,1016.04)">
                <rect x="1140.4" y="866.142" width="259.843" height="423.791"/>
            </g>
        </g>
        <g transform="matrix(1,0,0,1,-0.648294,0)">
            <g transform="matrix(0.250947,0,-0.00962131,0.0386799,3869.28,898.803)">
                <rect x="1140.4" y="866.142" width="259.843" height="423.791" style="fill:rgb(113,113,113);"/>
            </g>
        </g>
        <g transform="matrix(1,0,0,1,-0.648294,0)">
            <g transform="matrix(0.250947,0,-0.00962131,0.0386799,3854.53,957.415)">
                <rect x="1140.4" y="866.142" width="259.843" height="423.791" style="fill:rgb(113,113,113);"/>
            </g>
        </g>
        <g transform="matrix(1,0,0,1,-0.648294,0)">
            <g transform="matrix(-1,0,0.0711677,0.286111,5371.28,854.084)">
                <rect x="1140.4" y="866.142" width="259.843" height="423.791" style="fill:rgb(97,97,97);"/>
            </g>
        </g>
        <g transform="matrix(1,0,0,1,-0.648294,0)">
            <g transform="matrix(1,0,0,1,736.858,591.015)">
                <g transform="matrix(102.078,0,0,102.078,3559.41,609.786)">
                </g>
                <text x="3338.11px" y="609.786px" style="font-family:'Chicago';font-weight:500;font-size:102.078px;fill:rgb(124,237,227);">PLF:</text>
            </g>
        </g>
        <g transform="matrix(1,0,0,1,-0.648294,0)">
            <g transform="matrix(-1,0,0.0711677,0.286111,5489.31,622.094)">
                <path d="M1515.65,1676.98L1400.24,866.142L1140.4,866.142L1140.4,1289.93L1200.72,1289.93L1316.13,2100.78L1575.97,2100.78L1575.97,1676.98L1515.65,1676.98Z" style="fill:rgb(166,152,114);stroke:black;stroke-width:24.25px;"/>
            </g>
        </g>
        <g transform="matrix(1,0,0,1,-0.648294,0)">
            <g transform="matrix(-1,0,0.0711677,0.286111,5489.31,622.094)">
                <rect x="1140.4" y="866.142" width="259.843" height="423.791" style="fill:rgb(97,97,97);"/>
            </g>
        </g>
        <g transform="matrix(1,0,0,1,-0.648294,0)">
            <g transform="matrix(1,0,-0.207334,0.833529,3189.89,147.952)">
                <rect x="1140.4" y="866.142" width="259.843" height="423.791" style="fill:rgb(227,225,222);"/>
            </g>
        </g>
        <g transform="matrix(1,0,0,1,-0.648294,0)">
            <g transform="matrix(0.101711,0,-0.00962131,0.0386799,4052.07,848.289)">
                <rect x="1140.4" y="866.142" width="259.843" height="423.791" style="fill:rgb(113,113,113);"/>
            </g>
        </g>
        <g transform="matrix(1,0,0,1,-0.648294,0)">
            <g transform="matrix(0.698934,0,-0.00962131,0.0386799,3410.2,848.289)">
                <rect x="1140.4" y="866.142" width="259.843" height="423.791"/>
            </g>
        </g>
        <g transform="matrix(1,0,0,1,-0.648294,0)">
            <g transform="matrix(0.101711,0,-0.00962131,0.0386799,4016.56,990.771)">
                <rect x="1140.4" y="866.142" width="259.843" height="423.791" style="fill:rgb(113,113,113);"/>
            </g>
        </g>
        <g transform="matrix(1,0,0,1,-0.648294,0)">
            <g transform="matrix(0.205146,0,-0.00962131,0.0386799,3886.11,1041.3)">
                <rect x="1140.4" y="866.142" width="259.843" height="423.791" style="fill:rgb(113,113,113);"/>
            </g>
        </g>
        <g transform="matrix(1,0,0,1,-0.648294,0)">
            <g transform="matrix(0.101082,0,-0.00962131,0.0386799,4056.62,990.783)">
                <rect x="1140.4" y="866.142" width="259.843" height="423.791" style="fill:rgb(113,113,113);"/>
            </g>
        </g>
        <g transform="matrix(1,0,0,1,-0.648294,0)">
            <g transform="matrix(0.101711,0,-0.00962131,0.0386799,4031.28,932.159)">
                <rect x="1140.4" y="866.142" width="259.843" height="423.791" style="fill:rgb(113,113,113);"/>
            </g>
        </g>
        <g transform="matrix(1,0,0,1,-0.648294,0)">
            <g transform="matrix(0.101711,0,-0.00962131,0.0386799,4102.86,957.486)">
                <rect x="1140.4" y="866.142" width="259.843" height="423.791" style="fill:rgb(113,113,113);"/>
            </g>
        </g>
        <g transform="matrix(1,0,0,1,-0.648294,0)">
            <g transform="matrix(0.69917,0,-0.00962131,0.0386799,3389.3,932.387)">
                <rect x="1140.4" y="866.142" width="259.843" height="423.791"/>
            </g>
        </g>
        <g transform="matrix(1,0,0,1,-0.648294,0)">
            <g transform="matrix(0.686999,0,-0.00962131,0.0386799,3378.29,873.546)">
                <rect x="1140.4" y="866.142" width="259.843" height="423.791"/>
            </g>
        </g>
        <g transform="matrix(1,0,0,1,-0.648294,0)">
            <g transform="matrix(0.686999,0,-0.00962131,0.0386799,3342.94,1016.04)">
                <rect x="1140.4" y="866.142" width="259.843" height="423.791"/>
            </g>
        </g>
        <g transform="matrix(1,0,0,1,-0.648294,0)">
            <g transform="matrix(0.250947,0,-0.00962131,0.0386799,3869.28,898.803)">
                <rect x="1140.4" y="866.142" width="259.843" height="423.791" style="fill:rgb(113,113,113);"/>
            </g>
        </g>
        <g transform="matrix(1,0,0,1,-0.648294,0)">
            <g transform="matrix(0.250947,0,-0.00962131,0.0386799,3854.53,957.415)">
                <rect x="1140.4" y="866.142" width="259.843" height="423.791" style="fill:rgb(113,113,113);"/>
            </g>
        </g>
        <g transform="matrix(1,0,0,1,-0.648294,0)">
            <g transform="matrix(-1,0,0.0711677,0.286111,5371.28,854.084)">
                <rect x="1140.4" y="866.142" width="259.843" height="423.791" style="fill:rgb(97,97,97);"/>
            </g>
        </g>
        <g transform="matrix(1,0,0,1,-0.648294,0)">
            <g transform="matrix(1.08645,0,0,1.08645,446.826,538.876)">
                <g transform="matrix(102.078,0,0,102.078,3530.4,609.786)">
                </g>
                <text x="3338.11px" y="609.786px" style="font-family:'FuturaBT-Heavy', 'Futura Hv BT', sans-serif;font-size:102.078px;fill:rgb(124,237,227);">PLF<tspan x="3496.11px " y="609.786px ">:</tspan></text>
            </g>
        </g>
        <g transform="matrix(1,0,0,1,-0.648294,0)">
            <g transform="matrix(-1,0,0.0711677,0.286111,5489.31,622.094)">
                <path d="M1515.65,1676.98L1400.24,866.142L1140.4,866.142L1140.4,1289.93L1200.72,1289.93L1316.13,2100.78L1575.97,2100.78L1575.97,1676.98L1515.65,1676.98Z" style="fill:rgb(166,152,114);stroke:black;stroke-width:24.25px;"/>
            </g>
        </g>
        <g transform="matrix(1,0,0,1,-0.648294,0)">
            <g transform="matrix(-1,0,0.0711677,0.286111,5489.31,622.094)">
                <rect x="1140.4" y="866.142" width="259.843" height="423.791" style="fill:rgb(97,97,97);"/>
            </g>
        </g>
        <g transform="matrix(1,0,0,1,-0.648294,0)">
            <g transform="matrix(1,0,-0.207334,0.833529,3189.89,147.952)">
                <rect x="1140.4" y="866.142" width="259.843" height="423.791" style="fill:rgb(227,225,222);"/>
            </g>
        </g>
        <g transform="matrix(1,0,0,1,-0.648294,0)">
            <g transform="matrix(0.101711,0,-0.00962131,0.0386799,4052.07,848.289)">
                <rect x="1140.4" y="866.142" width="259.843" height="423.791" style="fill:rgb(113,113,113);"/>
            </g>
        </g>
        <g transform="matrix(1,0,0,1,-0.648294,0)">
            <g transform="matrix(0.698934,0,-0.00962131,0.0386799,3410.2,848.289)">
                <rect x="1140.4" y="866.142" width="259.843" height="423.791"/>
            </g>
        </g>
        <g transform="matrix(1,0,0,1,-0.648294,0)">
            <g transform="matrix(0.101711,0,-0.00962131,0.0386799,4016.56,990.771)">
                <rect x="1140.4" y="866.142" width="259.843" height="423.791" style="fill:rgb(113,113,113);"/>
            </g>
        </g>
        <g transform="matrix(1,0,0,1,-0.648294,0)">
            <g transform="matrix(0.205146,0,-0.00962131,0.0386799,3886.11,1041.3)">
                <rect x="1140.4" y="866.142" width="259.843" height="423.791" style="fill:rgb(113,113,113);"/>
            </g>
        </g>
        <g transform="matrix(1,0,0,1,-0.648294,0)">
            <g transform="matrix(0.101082,0,-0.00962131,0.0386799,4056.62,990.783)">
                <rect x="1140.4" y="866.142" width="259.843" height="423.791" style="fill:rgb(113,113,113);"/>
            </g>
        </g>
        <g transform="matrix(1,0,0,1,-0.648294,0)">
            <g transform="matrix(0.101711,0,-0.00962131,0.0386799,4031.28,932.159)">
                <rect x="1140.4" y="866.142" width="259.843" height="423.791" style="fill:rgb(113,113,113);"/>
            </g>
        </g>
        <g transform="matrix(1,0,0,1,-0.648294,0)">
            <g transform="matrix(0.101711,0,-0.00962131,0.0386799,4102.86,957.486)">
                <rect x="1140.4" y="866.142" width="259.843" height="423.791" style="fill:rgb(113,113,113);"/>
            </g>
        </g>
        <g transform="matrix(1,0,0,1,-0.648294,0)">
            <g transform="matrix(0.69917,0,-0.00962131,0.0386799,3389.3,932.387)">
                <rect x="1140.4" y="866.142" width="259.843" height="423.791"/>
            </g>
        </g>
        <g transform="matrix(1,0,0,1,-0.648294,0)">
            <g transform="matrix(0.686999,0,-0.00962131,0.0386799,3378.29,873.546)">
                <rect x="1140.4" y="866.142" width="259.843" height="423.791"/>
            </g>
        </g>
        <g transform="matrix(1,0,0,1,-0.648294,0)">
            <g transform="matrix(0.686999,0,-0.00962131,0.0386799,3342.94,1016.04)">
                <rect x="1140.4" y="866.142" width="259.843" height="423.791"/>
            </g>
        </g>
        <g transform="matrix(1,0,0,1,-0.648294,0)">
            <g transform="matrix(0.250947,0,-0.00962131,0.0386799,3869.28,898.803)">
                <rect x="1140.4" y="866.142" width="259.843" height="423.791" style="fill:rgb(113,113,113);"/>
            </g>
        </g>
        <g transform="matrix(1,0,0,1,-0.648294,0)">
            <g transform="matrix(0.250947,0,-0.00962131,0.0386799,3854.53,957.415)">
                <rect x="1140.4" y="866.142" width="259.843" height="423.791" style="fill:rgb(113,113,113);"/>
            </g>
        </g>
        <g transform="matrix(1,0,0,1,-0.648294,0)">
            <g transform="matrix(-1,0,0.0711677,0.286111,5371.28,854.084)">
                <rect x="1140.4" y="866.142" width="259.843" height="423.791" style="fill:rgb(97,97,97);"/>
            </g>
        </g>
        <g transform="matrix(1,0,0,1,-0.648294,0)">
            <g transform="matrix(1,0,0,1,736.858,591.015)">
                <g transform="matrix(102.078,0,0,102.078,3559.41,609.786)">
                </g>
                <text x="3338.11px" y="609.786px" style="font-family:'Chicago';font-weight:500;font-size:102.078px;fill:rgb(124,237,227);">PLF:</text>
            </g>
        </g>
        <g transform="matrix(1,0,0,1,-0.648294,0)">
            <g transform="matrix(-1,0,0.0711677,0.286111,5489.31,622.094)">
                <path d="M1515.65,1676.98L1400.24,866.142L1140.4,866.142L1140.4,1289.93L1200.72,1289.93L1316.13,2100.78L1575.97,2100.78L1575.97,1676.98L1515.65,1676.98Z" style="fill:rgb(166,152,114);stroke:black;stroke-width:24.25px;"/>
            </g>
        </g>
        <g transform="matrix(1,0,0,1,-0.648294,0)">
            <g transform="matrix(-1,0,0.0711677,0.286111,5489.31,622.094)">
                <rect x="1140.4" y="866.142" width="259.843" height="423.791" style="fill:rgb(97,97,97);"/>
            </g>
        </g>
        <g transform="matrix(1,0,0,1,-0.648294,0)">
            <g transform="matrix(1,0,-0.207334,0.833529,3189.89,147.952)">
                <rect x="1140.4" y="866.142" width="259.843" height="423.791" style="fill:rgb(227,225,222);"/>
            </g>
        </g>
        <g transform="matrix(1,0,0,1,-0.648294,0)">
            <g transform="matrix(0.101711,0,-0.00962131,0.0386799,4052.07,848.289)">
                <rect x="1140.4" y="866.142" width="259.843" height="423.791" style="fill:rgb(113,113,113);"/>
            </g>
        </g>
        <g transform="matrix(1,0,0,1,-0.648294,0)">
            <g transform="matrix(0.698934,0,-0.00962131,0.0386799,3410.2,848.289)">
                <rect x="1140.4" y="866.142" width="259.843" height="423.791"/>
            </g>
        </g>
        <g transform="matrix(1,0,0,1,-0.648294,0)">
            <g transform="matrix(0.101711,0,-0.00962131,0.0386799,4016.56,990.771)">
                <rect x="1140.4" y="866.142" width="259.843" height="423.791" style="fill:rgb(113,113,113);"/>
            </g>
        </g>
        <g transform="matrix(1,0,0,1,-0.648294,0)">
            <g transform="matrix(0.205146,0,-0.00962131,0.0386799,3886.11,1041.3)">
                <rect x="1140.4" y="866.142" width="259.843" height="423.791" style="fill:rgb(113,113,113);"/>
            </g>
        </g>
        <g transform="matrix(1,0,0,1,-0.648294,0)">
            <g transform="matrix(0.101082,0,-0.00962131,0.0386799,4056.62,990.783)">
                <rect x="1140.4" y="866.142" width="259.843" height="423.791" style="fill:rgb(113,113,113);"/>
            </g>
        </g>
        <g transform="matrix(1,0,0,1,-0.648294,0)">
            <g transform="matrix(0.101711,0,-0.00962131,0.0386799,4031.28,932.159)">
                <rect x="1140.4" y="866.142" width="259.843" height="423.791" style="fill:rgb(113,113,113);"/>
            </g>
        </g>
        <g transform="matrix(1,0,0,1,-0.648294,0)">
            <g transform="matrix(0.101711,0,-0.00962131,0.0386799,4102.86,957.486)">
                <rect x="1140.4" y="866.142" width="259.843" height="423.791" style="fill:rgb(113,113,113);"/>
            </g>
        </g>
        <g transform="matrix(1,0,0,1,-0.648294,0)">
            <g transform="matrix(0.69917,0,-0.00962131,0.0386799,3389.3,932.387)">
                <rect x="1140.4" y="866.142" width="259.843" height="423.791"/>
            </g>
        </g>
        <g transform="matrix(1,0,0,1,-0.648294,0)">
            <g transform="matrix(0.686999,0,-0.00962131,0.0386799,3378.29,873.546)">
                <rect x="1140.4" y="866.142" width="259.843" height="423.791"/>
            </g>
        </g>
        <g transform="matrix(1,0,0,1,-0.648294,0)">
            <g transform="matrix(0.686999,0,-0.00962131,0.0386799,3342.94,1016.04)">
                <rect x="1140.4" y="866.142" width="259.843" height="423.791"/>
            </g>
        </g>
        <g transform="matrix(1,0,0,1,-0.648294,0)">
            <g transform="matrix(0.250947,0,-0.00962131,0.0386799,3869.28,898.803)">
                <rect x="1140.4" y="866.142" width="259.843" height="423.791" style="fill:rgb(113,113,113);"/>
            </g>
        </g>
        <g transform="matrix(1,0,0,1,-0.648294,0)">
            <g transform="matrix(0.250947,0,-0.00962131,0.0386799,3854.53,957.415)">
                <rect x="1140.4" y="866.142" width="259.843" height="423.791" style="fill:rgb(113,113,113);"/>
            </g>
        </g>
        <g transform="matrix(1,0,0,1,-0.648294,0)">
            <g transform="matrix(-1,0,0.0711677,0.286111,5371.28,854.084)">
                <rect x="1140.4" y="866.142" width="259.843" height="423.791" style="fill:rgb(97,97,97);"/>
            </g>
        </g>
        <g transform="matrix(1,0,0,1,-0.648294,0)">
            <g transform="matrix(1.08645,0,0,1.08645,446.826,538.876)">
                <g transform="matrix(102.078,0,0,102.078,3530.4,609.786)">
                </g>
                <text x="3338.11px" y="609.786px" style="font-family:'FuturaBT-Heavy', 'Futura Hv BT', sans-serif;font-size:102.078px;fill:rgb(124,237,227);">PLF<tspan x="3496.11px " y="609.786px ">:</tspan></text>
            </g>
        </g>
    </g>
</svg>
