<?xml version="1.0" encoding="UTF-8" standalone="no"?>
<!DOCTYPE svg PUBLIC "-//W3C//DTD SVG 1.1//EN" "http://www.w3.org/Graphics/SVG/1.1/DTD/svg11.dtd">
<svg width="100%" height="100%" viewBox="0 0 1493 370" version="1.1" xmlns="http://www.w3.org/2000/svg" xmlns:xlink="http://www.w3.org/1999/xlink" xml:space="preserve" xmlns:serif="http://www.serif.com/" style="fill-rule:evenodd;clip-rule:evenodd;stroke-linejoin:round;stroke-miterlimit:2;">
    <g transform="matrix(1,0,0,1,-13547,-683.248)">
        <g transform="matrix(1,0,0,1,-0.648294,0)">
            <g transform="matrix(-1,0,0.0711677,0.286111,15012.4,443.769)">
                <path d="M1520.09,1647.86L1404.68,837.015L1131.81,837.015L1131.81,1282.9L1142.47,1319.06C1142.47,1319.06 1196.28,1319.06 1196.28,1319.06L1311.69,2129.9L1584.56,2129.9L1584.56,1684.02L1573.9,1647.86L1520.09,1647.86ZM1517.72,1706.11L1567.38,1706.11L1567.38,2071.65C1567.38,2071.65 1320.57,2071.65 1320.57,2071.65L1205.16,1260.81C1205.16,1260.81 1148.98,1260.81 1148.98,1260.81L1148.98,895.268C1185.03,895.268 1359.75,895.268 1395.8,895.268L1511.21,1706.11L1517.72,1706.11Z"/>
            </g>
        </g>
        <g transform="matrix(1,0,0,1,-0.648294,0)">
            <g transform="matrix(-1,0,0.0711677,0.286111,15012.4,443.769)">
                <rect x="1140.4" y="866.142" width="259.843" height="423.791" style="fill:rgb(97,97,97);"/>
            </g>
        </g>
        <g transform="matrix(1,0,0,1,-0.648294,0)">
            <g transform="matrix(1,0,-0.207334,0.833529,12713,-30.3726)">
                <rect x="1140.4" y="866.142" width="259.843" height="423.791" style="fill:rgb(227,225,222);"/>
            </g>
        </g>
        <g transform="matrix(1,0,0,1,-0.648294,0)">
            <g transform="matrix(0.101711,0,-0.00962131,0.0386799,13575.1,669.965)">
                <rect x="1140.4" y="866.142" width="259.843" height="423.791" style="fill:rgb(113,113,113);"/>
            </g>
        </g>
        <g transform="matrix(1,0,0,1,-0.648294,0)">
            <g transform="matrix(0.698934,0,-0.00962131,0.0386799,12933.3,669.965)">
                <rect x="1140.4" y="866.142" width="259.843" height="423.791"/>
            </g>
        </g>
        <g transform="matrix(1,0,0,1,-0.648294,0)">
            <g transform="matrix(0.101711,0,-0.00962131,0.0386799,13539.6,812.447)">
                <rect x="1140.4" y="866.142" width="259.843" height="423.791" style="fill:rgb(113,113,113);"/>
            </g>
        </g>
        <g transform="matrix(1,0,0,1,-0.648294,0)">
            <g transform="matrix(0.205146,0,-0.00962131,0.0386799,13409.2,862.972)">
                <rect x="1140.4" y="866.142" width="259.843" height="423.791" style="fill:rgb(113,113,113);"/>
            </g>
        </g>
        <g transform="matrix(1,0,0,1,-0.648294,0)">
            <g transform="matrix(0.101082,0,-0.00962131,0.0386799,13579.7,812.458)">
                <rect x="1140.4" y="866.142" width="259.843" height="423.791" style="fill:rgb(113,113,113);"/>
            </g>
        </g>
        <g transform="matrix(1,0,0,1,-0.648294,0)">
            <g transform="matrix(0.101711,0,-0.00962131,0.0386799,13554.3,753.834)">
                <rect x="1140.4" y="866.142" width="259.843" height="423.791" style="fill:rgb(113,113,113);"/>
            </g>
        </g>
        <g transform="matrix(1,0,0,1,-0.648294,0)">
            <g transform="matrix(0.101711,0,-0.00962131,0.0386799,13625.9,779.161)">
                <rect x="1140.4" y="866.142" width="259.843" height="423.791" style="fill:rgb(113,113,113);"/>
            </g>
        </g>
        <g transform="matrix(1,0,0,1,-0.648294,0)">
            <g transform="matrix(0.69917,0,-0.00962131,0.0386799,12912.4,754.062)">
                <rect x="1140.4" y="866.142" width="259.843" height="423.791"/>
            </g>
        </g>
        <g transform="matrix(1,0,0,1,-0.648294,0)">
            <g transform="matrix(0.686999,0,-0.00962131,0.0386799,12901.3,695.222)">
                <rect x="1140.4" y="866.142" width="259.843" height="423.791"/>
            </g>
        </g>
        <g transform="matrix(1,0,0,1,-0.648294,0)">
            <g transform="matrix(0.686999,0,-0.00962131,0.0386799,12866,837.715)">
                <rect x="1140.4" y="866.142" width="259.843" height="423.791"/>
            </g>
        </g>
        <g transform="matrix(1,0,0,1,-0.648294,0)">
            <g transform="matrix(0.250947,0,-0.00962131,0.0386799,13392.3,720.478)">
                <rect x="1140.4" y="866.142" width="259.843" height="423.791" style="fill:rgb(113,113,113);"/>
            </g>
        </g>
        <g transform="matrix(1,0,0,1,-0.648294,0)">
            <g transform="matrix(0.250947,0,-0.00962131,0.0386799,13377.6,779.091)">
                <rect x="1140.4" y="866.142" width="259.843" height="423.791" style="fill:rgb(113,113,113);"/>
            </g>
        </g>
        <g transform="matrix(1,0,0,1,-0.648294,0)">
            <g transform="matrix(-1,0,0.0711677,0.286111,14894.3,675.76)">
                <rect x="1140.4" y="866.142" width="259.843" height="423.791" style="fill:rgb(97,97,97);"/>
            </g>
        </g>
        <g transform="matrix(1,0,0,1,-0.648294,0)">
            <g transform="matrix(1,0,0,1,10259.9,412.691)">
                <g transform="matrix(102.078,0,0,102.078,3559.41,609.786)">
                </g>
                <text x="3338.11px" y="609.786px" style="font-family:'Chicago';font-weight:500;font-size:102.078px;fill:rgb(124,237,227);">PLF:</text>
            </g>
        </g>
        <g transform="matrix(1,0,0,1,-0.648294,0)">
            <g transform="matrix(-1,0,0.0711677,0.286111,15012.4,443.769)">
                <rect x="1140.4" y="866.142" width="259.843" height="423.791" style="fill:rgb(97,97,97);"/>
            </g>
        </g>
        <g transform="matrix(1,0,0,1,-0.648294,0)">
            <g transform="matrix(1,0,-0.207334,0.833529,12713,-30.3726)">
                <rect x="1140.4" y="866.142" width="259.843" height="423.791" style="fill:rgb(227,225,222);"/>
            </g>
        </g>
        <g transform="matrix(1,0,0,1,-0.648294,0)">
            <g transform="matrix(0.101711,0,-0.00962131,0.0386799,13575.1,669.965)">
                <rect x="1140.4" y="866.142" width="259.843" height="423.791" style="fill:rgb(113,113,113);"/>
            </g>
        </g>
        <g transform="matrix(1,0,0,1,-0.648294,0)">
            <g transform="matrix(0.698934,0,-0.00962131,0.0386799,12933.3,669.965)">
                <rect x="1140.4" y="866.142" width="259.843" height="423.791"/>
            </g>
        </g>
        <g transform="matrix(1,0,0,1,-0.648294,0)">
            <g transform="matrix(0.101711,0,-0.00962131,0.0386799,13539.6,812.447)">
                <rect x="1140.4" y="866.142" width="259.843" height="423.791" style="fill:rgb(113,113,113);"/>
            </g>
        </g>
        <g transform="matrix(1,0,0,1,-0.648294,0)">
            <g transform="matrix(0.205146,0,-0.00962131,0.0386799,13409.2,862.972)">
                <rect x="1140.4" y="866.142" width="259.843" height="423.791" style="fill:rgb(113,113,113);"/>
            </g>
        </g>
        <g transform="matrix(1,0,0,1,-0.648294,0)">
            <g transform="matrix(0.101082,0,-0.00962131,0.0386799,13579.7,812.458)">
                <rect x="1140.4" y="866.142" width="259.843" height="423.791" style="fill:rgb(113,113,113);"/>
            </g>
        </g>
        <g transform="matrix(1,0,0,1,-0.648294,0)">
            <g transform="matrix(0.101711,0,-0.00962131,0.0386799,13554.3,753.834)">
                <rect x="1140.4" y="866.142" width="259.843" height="423.791" style="fill:rgb(113,113,113);"/>
            </g>
        </g>
        <g transform="matrix(1,0,0,1,-0.648294,0)">
            <g transform="matrix(0.101711,0,-0.00962131,0.0386799,13625.9,779.161)">
                <rect x="1140.4" y="866.142" width="259.843" height="423.791" style="fill:rgb(113,113,113);"/>
            </g>
        </g>
        <g transform="matrix(1,0,0,1,-0.648294,0)">
            <g transform="matrix(0.69917,0,-0.00962131,0.0386799,12912.4,754.062)">
                <rect x="1140.4" y="866.142" width="259.843" height="423.791"/>
            </g>
        </g>
        <g transform="matrix(1,0,0,1,-0.648294,0)">
            <g transform="matrix(0.686999,0,-0.00962131,0.0386799,12901.3,695.222)">
                <rect x="1140.4" y="866.142" width="259.843" height="423.791"/>
            </g>
        </g>
        <g transform="matrix(1,0,0,1,-0.648294,0)">
            <g transform="matrix(0.686999,0,-0.00962131,0.0386799,12866,837.715)">
                <rect x="1140.4" y="866.142" width="259.843" height="423.791"/>
            </g>
        </g>
        <g transform="matrix(1,0,0,1,-0.648294,0)">
            <g transform="matrix(0.250947,0,-0.00962131,0.0386799,13392.3,720.478)">
                <rect x="1140.4" y="866.142" width="259.843" height="423.791" style="fill:rgb(113,113,113);"/>
            </g>
        </g>
        <g transform="matrix(1,0,0,1,-0.648294,0)">
            <g transform="matrix(0.250947,0,-0.00962131,0.0386799,13377.6,779.091)">
                <rect x="1140.4" y="866.142" width="259.843" height="423.791" style="fill:rgb(113,113,113);"/>
            </g>
        </g>
        <g transform="matrix(1,0,0,1,-0.648294,0)">
            <g transform="matrix(-1,0,0.0711677,0.286111,14894.3,675.76)">
                <rect x="1140.4" y="866.142" width="259.843" height="423.791" style="fill:rgb(97,97,97);"/>
            </g>
        </g>
        <g transform="matrix(1,0,0,1,-0.648294,0)">
            <g transform="matrix(1.08645,0,0,1.08645,9969.89,360.552)">
                <g transform="matrix(102.078,0,0,102.078,3530.4,609.786)">
                </g>
                <text x="3338.11px" y="609.786px" style="font-family:'FuturaBT-Heavy', 'Futura Hv BT', sans-serif;font-size:102.078px;fill:rgb(124,237,227);">PLF<tspan x="3496.11px " y="609.786px ">:</tspan></text>
            </g>
        </g>
        <g transform="matrix(1,0,0,1,-0.648294,0)">
            <g transform="matrix(-1,0,0.0711677,0.286111,15012.4,443.769)">
                <rect x="1140.4" y="866.142" width="259.843" height="423.791" style="fill:rgb(97,97,97);"/>
            </g>
        </g>
        <g transform="matrix(1,0,0,1,-0.648294,0)">
            <g transform="matrix(1,0,-0.207334,0.833529,12713,-30.3726)">
                <rect x="1140.4" y="866.142" width="259.843" height="423.791" style="fill:rgb(227,225,222);"/>
            </g>
        </g>
        <g transform="matrix(1,0,0,1,-0.648294,0)">
            <g transform="matrix(0.101711,0,-0.00962131,0.0386799,13575.1,669.965)">
                <rect x="1140.4" y="866.142" width="259.843" height="423.791" style="fill:rgb(113,113,113);"/>
            </g>
        </g>
        <g transform="matrix(1,0,0,1,-0.648294,0)">
            <g transform="matrix(0.698934,0,-0.00962131,0.0386799,12933.3,669.965)">
                <rect x="1140.4" y="866.142" width="259.843" height="423.791"/>
            </g>
        </g>
        <g transform="matrix(1,0,0,1,-0.648294,0)">
            <g transform="matrix(0.101711,0,-0.00962131,0.0386799,13539.6,812.447)">
                <rect x="1140.4" y="866.142" width="259.843" height="423.791" style="fill:rgb(113,113,113);"/>
            </g>
        </g>
        <g transform="matrix(1,0,0,1,-0.648294,0)">
            <g transform="matrix(0.205146,0,-0.00962131,0.0386799,13409.2,862.972)">
                <rect x="1140.4" y="866.142" width="259.843" height="423.791" style="fill:rgb(113,113,113);"/>
            </g>
        </g>
        <g transform="matrix(1,0,0,1,-0.648294,0)">
            <g transform="matrix(0.101082,0,-0.00962131,0.0386799,13579.7,812.458)">
                <rect x="1140.4" y="866.142" width="259.843" height="423.791" style="fill:rgb(113,113,113);"/>
            </g>
        </g>
        <g transform="matrix(1,0,0,1,-0.648294,0)">
            <g transform="matrix(0.101711,0,-0.00962131,0.0386799,13554.3,753.834)">
                <rect x="1140.4" y="866.142" width="259.843" height="423.791" style="fill:rgb(113,113,113);"/>
            </g>
        </g>
        <g transform="matrix(1,0,0,1,-0.648294,0)">
            <g transform="matrix(0.101711,0,-0.00962131,0.0386799,13625.9,779.161)">
                <rect x="1140.4" y="866.142" width="259.843" height="423.791" style="fill:rgb(113,113,113);"/>
            </g>
        </g>
        <g transform="matrix(1,0,0,1,-0.648294,0)">
            <g transform="matrix(0.69917,0,-0.00962131,0.0386799,12912.4,754.062)">
                <rect x="1140.4" y="866.142" width="259.843" height="423.791"/>
            </g>
        </g>
        <g transform="matrix(1,0,0,1,-0.648294,0)">
            <g transform="matrix(0.686999,0,-0.00962131,0.0386799,12901.3,695.222)">
                <rect x="1140.4" y="866.142" width="259.843" height="423.791"/>
            </g>
        </g>
        <g transform="matrix(1,0,0,1,-0.648294,0)">
            <g transform="matrix(0.686999,0,-0.00962131,0.0386799,12866,837.715)">
                <rect x="1140.4" y="866.142" width="259.843" height="423.791"/>
            </g>
        </g>
        <g transform="matrix(1,0,0,1,-0.648294,0)">
            <g transform="matrix(0.250947,0,-0.00962131,0.0386799,13392.3,720.478)">
                <rect x="1140.4" y="866.142" width="259.843" height="423.791" style="fill:rgb(113,113,113);"/>
            </g>
        </g>
        <g transform="matrix(1,0,0,1,-0.648294,0)">
            <g transform="matrix(0.250947,0,-0.00962131,0.0386799,13377.6,779.091)">
                <rect x="1140.4" y="866.142" width="259.843" height="423.791" style="fill:rgb(113,113,113);"/>
            </g>
        </g>
        <g transform="matrix(1,0,0,1,-0.648294,0)">
            <g transform="matrix(-1,0,0.0711677,0.286111,14894.3,675.76)">
                <rect x="1140.4" y="866.142" width="259.843" height="423.791" style="fill:rgb(97,97,97);"/>
            </g>
        </g>
        <g transform="matrix(1,0,0,1,-0.648294,0)">
            <g transform="matrix(1,0,0,1,10259.9,412.691)">
                <g transform="matrix(102.078,0,0,102.078,3559.41,609.786)">
                </g>
                <text x="3338.11px" y="609.786px" style="font-family:'Chicago';font-weight:500;font-size:102.078px;fill:rgb(124,237,227);">PLF:</text>
            </g>
        </g>
        <g transform="matrix(1,0,0,1,-0.648294,0)">
            <g transform="matrix(-1,0,0.0711677,0.286111,15012.4,443.769)">
                <path d="M1515.65,1676.98L1400.24,866.142L1140.4,866.142L1140.4,1289.93L1200.72,1289.93L1316.13,2100.78L1575.97,2100.78L1575.97,1676.98L1515.65,1676.98Z" style="fill:rgb(166,152,114);"/>
            </g>
        </g>
        <g transform="matrix(1,0,0,1,-0.648294,0)">
            <g transform="matrix(-1,0,0.0711677,0.286111,15012.4,443.769)">
                <rect x="1140.4" y="866.142" width="259.843" height="423.791" style="fill:rgb(97,97,97);"/>
            </g>
        </g>
        <g transform="matrix(1,0,0,1,-0.648294,0)">
            <g transform="matrix(1,0,-0.207334,0.833529,12713,-30.3726)">
                <rect x="1140.4" y="866.142" width="259.843" height="423.791" style="fill:rgb(227,225,222);"/>
            </g>
        </g>
        <g transform="matrix(1,0,0,1,-0.648294,0)">
            <g transform="matrix(0.101711,0,-0.00962131,0.0386799,13575.1,669.965)">
                <rect x="1140.4" y="866.142" width="259.843" height="423.791" style="fill:rgb(22,157,145);"/>
            </g>
        </g>
        <g transform="matrix(1,0,0,1,-0.648294,0)">
            <g transform="matrix(0.698934,0,-0.00962131,0.0386799,12933.3,669.965)">
                <rect x="1140.4" y="866.142" width="259.843" height="423.791" style="fill:rgb(12,90,82);"/>
            </g>
        </g>
        <g transform="matrix(1,0,0,1,-0.648294,0)">
            <g transform="matrix(0.101711,0,-0.00962131,0.0386799,13539.6,812.447)">
                <rect x="1140.4" y="866.142" width="259.843" height="423.791" style="fill:rgb(22,157,145);"/>
            </g>
        </g>
        <g transform="matrix(1,0,0,1,-0.648294,0)">
            <g transform="matrix(0.205146,0,-0.00962131,0.0386799,13409.2,862.972)">
                <rect x="1140.4" y="866.142" width="259.843" height="423.791" style="fill:rgb(22,157,145);"/>
            </g>
        </g>
        <g transform="matrix(1,0,0,1,-0.648294,0)">
            <g transform="matrix(0.101082,0,-0.00962131,0.0386799,13579.7,812.458)">
                <rect x="1140.4" y="866.142" width="259.843" height="423.791" style="fill:rgb(22,157,145);"/>
            </g>
        </g>
        <g transform="matrix(1,0,0,1,-0.648294,0)">
            <g transform="matrix(0.101711,0,-0.00962131,0.0386799,13554.3,753.834)">
                <rect x="1140.4" y="866.142" width="259.843" height="423.791" style="fill:rgb(22,157,145);"/>
            </g>
        </g>
        <g transform="matrix(1,0,0,1,-0.648294,0)">
            <g transform="matrix(0.101711,0,-0.00962131,0.0386799,13625.9,779.161)">
                <rect x="1140.4" y="866.142" width="259.843" height="423.791" style="fill:rgb(22,157,145);"/>
            </g>
        </g>
        <g transform="matrix(1,0,0,1,-0.648294,0)">
            <g transform="matrix(0.69917,0,-0.00962131,0.0386799,12912.4,754.062)">
                <rect x="1140.4" y="866.142" width="259.843" height="423.791" style="fill:rgb(12,90,82);"/>
            </g>
        </g>
        <g transform="matrix(1,0,0,1,-0.648294,0)">
            <g transform="matrix(0.686999,0,-0.00962131,0.0386799,12901.3,695.222)">
                <rect x="1140.4" y="866.142" width="259.843" height="423.791" style="fill:rgb(12,90,82);"/>
            </g>
        </g>
        <g transform="matrix(1,0,0,1,-0.648294,0)">
            <g transform="matrix(0.686999,0,-0.00962131,0.0386799,12866,837.715)">
                <rect x="1140.4" y="866.142" width="259.843" height="423.791" style="fill:rgb(12,90,82);"/>
            </g>
        </g>
        <g transform="matrix(1,0,0,1,-0.648294,0)">
            <g transform="matrix(0.250947,0,-0.00962131,0.0386799,13392.3,720.478)">
                <rect x="1140.4" y="866.142" width="259.843" height="423.791" style="fill:rgb(22,157,145);"/>
            </g>
        </g>
        <g transform="matrix(1,0,0,1,-0.648294,0)">
            <g transform="matrix(0.250947,0,-0.00962131,0.0386799,13377.6,779.091)">
                <rect x="1140.4" y="866.142" width="259.843" height="423.791" style="fill:rgb(22,157,145);"/>
            </g>
        </g>
        <g transform="matrix(1,0,0,1,-0.648294,0)">
            <g transform="matrix(-1,0,0.0711677,0.286111,14894.3,675.76)">
                <rect x="1140.4" y="866.142" width="259.843" height="423.791" style="fill:rgb(97,97,97);"/>
            </g>
        </g>
        <g transform="matrix(1,0,0,1,-0.648294,0)">
            <g transform="matrix(1.08645,0,0,1.08645,9969.89,360.552)">
                <path d="M3361.98,569.763L3364.22,569.763C3368.48,569.763 3371.57,568.882 3373.49,567.121C3375.42,565.36 3376.39,562.535 3376.39,558.648C3376.39,555.059 3375.42,552.442 3373.49,550.797C3371.57,549.153 3368.48,548.33 3364.22,548.33L3361.98,548.33L3361.98,569.763ZM3346.28,609.786L3346.28,536.816L3364.22,536.816C3373.79,536.816 3380.86,538.644 3385.43,542.299C3390,545.954 3392.28,551.603 3392.28,559.246C3392.28,566.323 3389.98,571.873 3385.38,575.893C3380.78,579.914 3374.41,581.924 3366.27,581.924L3361.98,581.924L3361.98,609.786L3346.28,609.786Z" style="fill:rgb(124,237,227);fill-rule:nonzero;"/>
                <path d="M3403.05,609.786L3403.05,536.816L3418.65,536.816L3418.65,596.528L3443.57,596.528L3443.57,609.786L3403.05,609.786Z" style="fill:rgb(124,237,227);fill-rule:nonzero;"/>
                <path d="M3453.39,609.786L3453.39,536.816L3496.36,536.816L3496.36,549.975L3468.99,549.975L3468.99,564.978L3496.36,564.978L3496.36,578.236L3468.99,578.236L3468.99,609.786L3453.39,609.786Z" style="fill:rgb(124,237,227);fill-rule:nonzero;"/>
                <path d="M3504.68,570.062C3504.68,567.702 3505.51,565.7 3507.17,564.056C3508.83,562.411 3510.86,561.588 3513.25,561.588C3515.61,561.588 3517.62,562.411 3519.26,564.056C3520.9,565.7 3521.73,567.702 3521.73,570.062C3521.73,572.454 3520.9,574.481 3519.26,576.142C3517.62,577.804 3515.61,578.635 3513.25,578.635C3510.89,578.635 3508.88,577.796 3507.2,576.118C3505.52,574.439 3504.68,572.421 3504.68,570.062ZM3504.68,602.659C3504.68,600.266 3505.51,598.256 3507.17,596.628C3508.83,595 3510.86,594.186 3513.25,594.186C3515.61,594.186 3517.62,595 3519.26,596.628C3520.9,598.256 3521.73,600.266 3521.73,602.659C3521.73,605.018 3520.9,607.037 3519.26,608.715C3517.62,610.393 3515.61,611.232 3513.25,611.232C3510.89,611.232 3508.88,610.384 3507.2,608.69C3505.52,606.995 3504.68,604.985 3504.68,602.659Z" style="fill:rgb(124,237,227);fill-rule:nonzero;"/>
            </g>
        </g>
        <g transform="matrix(1,0,0,1,-0.648294,0)">
            <g transform="matrix(2.48136,0,0,2.48136,5724.1,-569.193)">
                <path d="M3357.99,585.264C3357.99,589.683 3359.08,593.122 3361.26,595.581C3363.43,598.04 3366.47,599.269 3370.35,599.269C3374.24,599.269 3377.27,598.04 3379.45,595.581C3381.63,593.122 3382.72,589.683 3382.72,585.264C3382.72,580.844 3381.61,577.364 3379.4,574.822C3377.19,572.28 3374.14,571.009 3370.26,571.009C3366.5,571.009 3363.52,572.288 3361.31,574.847C3359.1,577.405 3357.99,580.877 3357.99,585.264ZM3345.03,632.016L3345.03,560.891L3358.64,560.891L3358.64,568.965C3360.5,565.709 3362.79,563.275 3365.49,561.663C3368.2,560.052 3371.35,559.246 3374.94,559.246C3381.89,559.246 3387.32,561.547 3391.24,566.149C3395.16,570.751 3397.12,577.173 3397.12,585.413C3397.12,593.355 3395.14,599.726 3391.19,604.528C3387.23,609.329 3382.03,611.73 3375.59,611.73C3371.7,611.73 3368.4,611.007 3365.69,609.562C3362.99,608.117 3360.67,605.849 3358.74,602.758C3358.91,603.988 3359.03,605.325 3359.12,606.771C3359.2,608.216 3359.24,609.869 3359.24,611.73L3359.24,632.016L3345.03,632.016Z" style="fill:rgb(124,237,227);fill-rule:nonzero;"/>
                <path d="M3420,605.998L3400.31,560.891L3416.71,560.891L3425.18,583.27C3425.75,584.666 3426.21,586.269 3426.58,588.08C3426.94,589.891 3427.22,591.909 3427.42,594.136C3427.76,592.341 3428.17,590.514 3428.67,588.653C3429.17,586.792 3429.78,584.815 3430.51,582.722L3437.94,560.891L3454.19,560.891L3425.08,632.016L3409.38,632.016L3420,605.998Z" style="fill:rgb(124,237,227);fill-rule:nonzero;"/>
                <rect x="3460.97" y="532.53" width="14.155" height="77.256" style="fill:rgb(22,157,145);fill-rule:nonzero;"/>
                <path d="M3526.51,585.413C3526.51,581.426 3525.35,578.244 3523.02,575.868C3520.7,573.492 3517.57,572.305 3513.65,572.305C3509.73,572.305 3506.62,573.484 3504.33,575.843C3502.04,578.203 3500.89,581.393 3500.89,585.413C3500.89,589.401 3502.04,592.591 3504.33,594.983C3506.62,597.375 3509.73,598.572 3513.65,598.572C3517.54,598.572 3520.66,597.375 3523,594.983C3525.34,592.591 3526.51,589.401 3526.51,585.413ZM3540.97,585.513C3540.97,593.023 3538.4,599.269 3533.26,604.254C3528.13,609.238 3521.63,611.73 3513.75,611.73C3505.81,611.73 3499.26,609.238 3494.11,604.254C3488.96,599.269 3486.39,593.023 3486.39,585.513C3486.39,578.036 3488.98,571.789 3494.16,566.772C3499.35,561.754 3505.88,559.246 3513.75,559.246C3521.66,559.246 3528.17,561.721 3533.29,566.672C3538.41,571.623 3540.97,577.904 3540.97,585.513Z" style="fill:rgb(22,157,145);fill-rule:nonzero;"/>
                <path d="M3600.58,608.989C3600.58,614.139 3600.27,617.761 3599.66,619.855C3599.04,621.948 3597.99,623.759 3596.49,625.287C3594.36,627.58 3591.64,629.275 3588.32,630.371C3584.99,631.468 3580.96,632.016 3576.2,632.016C3568.26,632.016 3562.23,630.754 3558.11,628.228C3553.99,625.703 3551.75,621.865 3551.38,616.714L3566.98,616.714C3567.22,618.608 3568.08,620.004 3569.58,620.901C3571.07,621.798 3573.28,622.247 3576.2,622.247C3580.06,622.247 3582.84,621.25 3584.55,619.256C3586.26,617.263 3587.12,613.94 3587.12,609.288L3587.12,602.31C3585.23,605.334 3582.94,607.577 3580.27,609.039C3577.59,610.501 3574.43,611.232 3570.77,611.232C3564.06,611.232 3558.69,608.881 3554.67,604.179C3550.65,599.477 3548.64,593.139 3548.64,585.164C3548.64,577.056 3550.6,570.71 3554.52,566.124C3558.44,561.538 3563.86,559.246 3570.77,559.246C3574.33,559.246 3577.49,560.068 3580.27,561.713C3583.04,563.358 3585.36,565.775 3587.22,568.965L3587.22,560.891L3600.58,560.891L3600.58,608.989ZM3587.72,585.264C3587.72,580.944 3586.62,577.538 3584.43,575.046C3582.24,572.554 3579.24,571.308 3575.46,571.308C3571.57,571.308 3568.53,572.545 3566.34,575.021C3564.14,577.496 3563.05,580.911 3563.05,585.264C3563.05,589.617 3564.13,593.006 3566.29,595.432C3568.45,597.857 3571.47,599.07 3575.36,599.07C3579.24,599.07 3582.28,597.857 3584.45,595.432C3586.63,593.006 3587.72,589.617 3587.72,585.264Z" style="fill:rgb(22,157,145);fill-rule:nonzero;"/>
                <path d="M3616.33,609.786L3616.33,572.005L3610,572.005L3610,560.891L3616.33,560.891L3616.33,549.875C3616.33,543.296 3617.84,538.586 3620.86,535.745C3623.89,532.904 3628.87,531.483 3635.82,531.483C3636.58,531.483 3637.47,531.558 3638.48,531.708C3639.5,531.857 3640.82,532.131 3642.45,532.53L3642.45,543.844C3641.58,543.379 3640.75,543.039 3639.95,542.823C3639.16,542.607 3638.33,542.499 3637.46,542.499C3634.97,542.499 3633.19,543.155 3632.13,544.467C3631.07,545.78 3630.53,548.048 3630.53,551.271L3630.53,560.891L3639.61,560.891L3639.61,572.005L3630.53,572.005L3630.53,609.786L3616.33,609.786Z" style="fill:rgb(12,90,82);fill-rule:nonzero;"/>
                <path d="M3647.68,540.804C3647.68,538.544 3648.49,536.6 3650.12,534.972C3651.75,533.344 3653.69,532.53 3655.95,532.53C3658.25,532.53 3660.22,533.336 3661.86,534.947C3663.51,536.559 3664.33,538.511 3664.33,540.804C3664.33,543.097 3663.51,545.057 3661.86,546.685C3660.22,548.314 3658.25,549.128 3655.95,549.128C3653.69,549.128 3651.75,548.297 3650.12,546.635C3648.49,544.974 3647.68,543.03 3647.68,540.804ZM3648.93,609.786L3648.93,560.891L3663.08,560.891L3663.08,609.786L3648.93,609.786Z" style="fill:rgb(12,90,82);fill-rule:nonzero;"/>
                <rect x="3678.03" y="532.53" width="14.155" height="77.256" style="fill:rgb(12,90,82);fill-rule:nonzero;"/>
                <path d="M3740.29,580.279C3739.89,577.189 3738.77,574.855 3736.92,573.276C3735.08,571.698 3732.56,570.909 3729.37,570.909C3726.18,570.909 3723.63,571.698 3721.72,573.276C3719.81,574.855 3718.59,577.189 3718.06,580.279L3740.29,580.279ZM3754.34,588.852L3717.61,588.852C3718.17,592.375 3719.45,595.008 3721.45,596.752C3723.44,598.497 3726.15,599.369 3729.57,599.369C3732.16,599.369 3734.4,598.871 3736.28,597.874C3738.15,596.877 3739.72,595.365 3740.99,593.338L3752.45,599.07C3749.79,603.357 3746.57,606.538 3742.78,608.615C3738.99,610.692 3734.49,611.73 3729.27,611.73C3721.36,611.73 3715.1,609.371 3710.48,604.653C3705.86,599.934 3703.55,593.587 3703.55,585.613C3703.55,577.937 3705.97,571.623 3710.81,566.672C3715.64,561.721 3721.83,559.246 3729.37,559.246C3737.15,559.246 3743.3,561.563 3747.81,566.199C3752.33,570.834 3754.59,577.156 3754.59,585.164C3754.59,585.596 3754.58,586.069 3754.54,586.584C3754.51,587.1 3754.44,587.855 3754.34,588.852Z" style="fill:rgb(12,90,82);fill-rule:nonzero;"/>
            </g>
        </g>
    </g>
</svg>
